<?xml version="1.0" encoding="utf-8"?>
<!-- Generator: Adobe Illustrator 18.0.0, SVG Export Plug-In . SVG Version: 6.00 Build 0)  -->
<!DOCTYPE svg PUBLIC "-//W3C//DTD SVG 1.1//EN" "http://www.w3.org/Graphics/SVG/1.1/DTD/svg11.dtd">
<svg version="1.1" id="Layer_1" xmlns="http://www.w3.org/2000/svg" xmlns:xlink="http://www.w3.org/1999/xlink" x="0px" y="0px"
	 viewBox="4.6 2236.1 1190 1190" enable-background="new 4.6 2236.1 1190 1190" xml:space="preserve">
<g>
	<g>
		<path fill="#FFFFFF" d="M936.6,3209.6c-10.6,0-21.3-4.1-29.4-12.2l-674-674c-16.2-16.2-16.2-42.6,0-58.8
			c16.2-16.2,42.6-16.2,58.8,0l674,674c16.2,16.2,16.2,42.6,0,58.8C957.9,3205.6,947.2,3209.6,936.6,3209.6z"/>
		<path fill="#FFFFFF" d="M936.6,3233.4c-17.5,0-33.9-6.8-46.2-19.1l-674-674c-25.5-25.5-25.5-66.9,0-92.4
			c12.3-12.3,28.8-19.1,46.2-19.1c17.5,0,33.9,6.8,46.2,19.1l674,674c12.3,12.3,19.1,28.8,19.1,46.2c0,17.5-6.8,33.9-19.1,46.2
			C970.4,3226.6,954,3233.4,936.6,3233.4z M262.6,2476.2c-4.8,0-9.3,1.9-12.6,5.2c-7,7-7,18.3,0,25.3l674,674
			c3.4,3.4,7.9,5.2,12.6,5.2s9.3-1.9,12.6-5.2c3.4-3.4,5.2-7.9,5.2-12.6c0-4.8-1.9-9.3-5.2-12.6l-674-674
			C271.9,2478.1,267.4,2476.2,262.6,2476.2z"/>
	</g>
</g>
<g>
	<g>
		<path fill="#FFFFFF" d="M262.6,3209.6c-10.6,0-21.3-4.1-29.4-12.2c-16.2-16.2-16.2-42.6,0-58.8l674-674
			c16.2-16.2,42.6-16.2,58.8,0c16.2,16.2,16.2,42.6,0,58.8l-674,674C283.9,3205.6,273.2,3209.6,262.6,3209.6z"/>
		<path fill="#FFFFFF" d="M262.6,3233.4c-17.5,0-33.9-6.8-46.2-19.1c-25.5-25.5-25.5-66.9,0-92.4l674-674
			c12.3-12.3,28.8-19.1,46.2-19.1c17.5,0,33.9,6.8,46.2,19.1c12.3,12.3,19.1,28.8,19.1,46.2c0,17.5-6.8,33.9-19.1,46.2l-674,674
			C296.5,3226.6,280.1,3233.4,262.6,3233.4z M936.6,2476.2c-4.8,0-9.3,1.9-12.6,5.2l-674,674c-7,7-7,18.3,0,25.3
			c3.4,3.4,7.9,5.2,12.6,5.2c4.8,0,9.3-1.9,12.6-5.2l674-674c3.4-3.4,5.2-7.9,5.2-12.6c0-4.8-1.9-9.3-5.2-12.6
			S941.3,2476.2,936.6,2476.2z"/>
	</g>
</g>
</svg>
